<svg version="1.1" id="Layer_1" xmlns="http://www.w3.org/2000/svg" xmlns:xlink="http://www.w3.org/1999/xlink" x="0px" y="0px"
	 width="100%" viewBox="0 0 192 192" enable-background="new 0 0 192 192" xml:space="preserve">
<path fill="#C16A50" opacity="1.000000" stroke="none" 
	d="
M169.000000,193.000000 
	C121.312439,193.000000 73.624878,193.000000 25.742138,192.677338 
	C24.365047,189.404556 22.165930,186.458878 22.152954,183.503601 
	C21.939476,134.881775 21.996387,86.258720 22.007097,37.635948 
	C22.008623,30.705475 25.473112,27.190840 32.518734,27.018587 
	C37.676418,26.892492 42.837566,26.908237 48.335625,27.135948 
	C48.757874,32.842281 48.841671,38.273430 48.493965,43.730663 
	C38.794262,43.839634 38.273457,44.368622 38.272881,53.810211 
	C38.270550,91.953011 38.265865,130.095810 38.277313,168.238617 
	C38.279568,175.750137 39.479424,176.943436 46.961948,176.945389 
	C80.274445,176.954102 113.586937,176.953552 146.899429,176.945999 
	C154.629257,176.944260 155.723145,175.821899 155.724686,167.878113 
	C155.732086,129.568741 155.728058,91.259384 155.727310,52.950016 
	C155.727295,51.950668 155.733322,50.950996 155.711487,49.952026 
	C155.623962,45.949139 153.760178,43.721607 149.569717,43.779362 
	C148.071915,43.800003 146.572876,43.732025 145.064941,43.255272 
	C145.088120,37.529316 145.120758,32.252586 145.612122,26.986074 
	C151.064835,26.998226 156.059433,26.951778 161.052673,27.013903 
	C167.842972,27.098387 171.994308,31.299767 171.995422,38.029289 
	C172.001511,74.651886 172.367233,111.279984 171.820602,147.894424 
	C171.596207,162.924789 175.023422,178.299713 169.000000,193.000000 
z"/>
<path fill="#000000" opacity="1.000000" stroke="none" 
	d="
M169.468689,193.000000 
	C175.023422,178.299713 171.596207,162.924789 171.820602,147.894424 
	C172.367233,111.279984 172.001511,74.651886 171.995422,38.029289 
	C171.994308,31.299767 167.842972,27.098387 161.052673,27.013903 
	C156.059433,26.951778 151.064835,26.998226 145.543503,26.586977 
	C144.807755,20.695559 140.210098,16.098850 134.706543,16.023684 
	C129.073715,15.946755 123.434151,15.864879 117.807312,16.062906 
	C115.115967,16.157625 113.903679,15.317283 112.878708,12.723986 
	C111.681282,9.694391 109.482941,7.064232 107.755898,4.238139 
	C107.116493,3.191827 106.582222,2.081261 106.000000,0.999999 
	C134.958069,1.000000 163.916153,1.000000 192.937103,1.000000 
	C192.937103,64.999985 192.937103,128.999985 192.937103,193.000000 
	C185.248489,193.000000 177.592941,193.000000 169.468689,193.000000 
z"/>
<path fill="#000000" opacity="1.000000" stroke="none" 
	d="
M47.997173,26.860762 
	C42.837566,26.908237 37.676418,26.892492 32.518734,27.018587 
	C25.473112,27.190840 22.008623,30.705475 22.007097,37.635948 
	C21.996387,86.258720 21.939476,134.881775 22.152954,183.503601 
	C22.165930,186.458878 24.365047,189.404556 25.273481,192.677338 
	C17.011564,193.000000 9.023128,193.000000 1.017346,193.000000 
	C1.017346,129.104080 1.017346,65.208153 1.017346,1.000000 
	C29.686806,1.000000 58.374744,1.000000 87.840385,1.267986 
	C85.243279,6.049461 81.868477,10.562952 77.801254,16.002481 
	C74.434082,16.002481 69.453529,16.002293 64.472977,16.002520 
	C53.300873,16.003031 51.807793,16.987122 47.997173,26.860762 
z"/>
<path fill="#CBD5DD" opacity="1.000000" stroke="none" 
	d="
M48.335625,27.135948 
	C51.807793,16.987122 53.300873,16.003031 64.472977,16.002520 
	C69.453529,16.002293 74.434082,16.002481 77.801254,16.002481 
	C81.868477,10.562952 85.243279,6.049461 88.309044,1.267986 
	C93.688042,1.000000 99.376083,1.000000 105.532059,0.999999 
	C106.582222,2.081261 107.116493,3.191827 107.755898,4.238139 
	C109.482941,7.064232 111.681282,9.694391 112.878708,12.723986 
	C113.903679,15.317283 115.115967,16.157625 117.807312,16.062906 
	C123.434151,15.864879 129.073715,15.946755 134.706543,16.023684 
	C140.210098,16.098850 144.807755,20.695559 145.084778,26.576761 
	C145.120758,32.252586 145.088120,37.529316 145.039062,43.732067 
	C144.922256,54.040829 144.922256,54.040867 135.365097,54.040874 
	C110.134087,54.040894 84.903069,54.040874 59.672058,54.040874 
	C49.200764,54.040874 49.200764,54.040871 48.925468,43.704575 
	C48.841671,38.273430 48.757874,32.842281 48.335625,27.135948 
M97.378738,6.266799 
	C95.623253,6.705471 93.718452,6.847313 92.141342,7.640604 
	C88.039711,9.703744 86.044159,13.248975 86.388634,17.820450 
	C86.714836,22.149523 88.974960,25.298450 93.100990,26.898827 
	C97.417847,28.573214 101.378334,27.733644 104.564857,24.495516 
	C111.133820,17.820190 106.686012,7.248028 97.378738,6.266799 
z"/>
<path fill="#FDFCFC" opacity="1.000000" stroke="none" 
	d="
M48.493969,43.730663 
	C49.200764,54.040871 49.200764,54.040874 59.672058,54.040874 
	C84.903069,54.040874 110.134087,54.040894 135.365097,54.040874 
	C144.922256,54.040867 144.922256,54.040829 145.048523,44.181290 
	C146.572876,43.732025 148.071915,43.800003 149.569717,43.779362 
	C153.760178,43.721607 155.623962,45.949139 155.711487,49.952026 
	C155.733322,50.950996 155.727295,51.950668 155.727310,52.950016 
	C155.728058,91.259384 155.732086,129.568741 155.724686,167.878113 
	C155.723145,175.821899 154.629257,176.944260 146.899429,176.945999 
	C113.586937,176.953552 80.274445,176.954102 46.961948,176.945389 
	C39.479424,176.943436 38.279568,175.750137 38.277313,168.238617 
	C38.265865,130.095810 38.270550,91.953011 38.272881,53.810211 
	C38.273457,44.368622 38.794262,43.839634 48.493969,43.730663 
M109.500000,113.024223 
	C91.837608,113.025551 74.175110,113.058533 56.512894,113.002411 
	C52.827431,112.990700 49.712605,113.720810 49.127384,117.947075 
	C48.657925,121.337349 51.578590,123.789894 56.241333,123.800301 
	C83.401291,123.860954 110.561447,123.833870 137.721542,123.825714 
	C141.430573,123.824600 144.731750,122.597214 144.802124,118.462318 
	C144.879486,113.917076 141.432404,112.968651 137.493256,113.003014 
	C128.496124,113.081512 119.497826,113.025597 109.500000,113.024223 
M119.499924,145.004517 
	C125.998352,144.998978 132.536575,145.395767 138.972580,144.759094 
	C141.086700,144.549957 144.154770,141.950333 144.630875,139.934677 
	C145.415863,136.611115 142.714432,134.563400 139.220551,134.257721 
	C138.061874,134.156357 136.889771,134.192917 135.723816,134.192795 
	C109.896591,134.189804 84.069351,134.184952 58.242138,134.203506 
	C56.584305,134.204697 54.478790,133.796844 53.371120,134.629562 
	C51.596409,135.963776 49.484840,138.134842 49.403488,140.033081 
	C49.337521,141.572357 51.835861,143.550385 53.603973,144.716583 
	C54.672482,145.421356 56.517883,144.996262 58.014259,144.997070 
	C78.176155,145.007965 98.338058,145.004456 119.499924,145.004517 
M58.673904,102.143379 
	C84.298065,102.143303 109.922226,102.146080 135.546387,102.136597 
	C137.207809,102.135986 139.276871,102.640457 140.436523,101.851707 
	C142.246689,100.620499 144.426849,98.563828 144.579300,96.703590 
	C144.698547,95.248421 142.164215,93.300468 140.446594,92.082451 
	C139.543304,91.441910 137.863007,91.862953 136.533539,91.862610 
	C110.243805,91.855743 83.954071,91.857101 57.664333,91.858337 
	C56.666077,91.858383 55.667393,91.858177 54.669636,91.885010 
	C51.326401,91.974937 48.751659,93.764938 49.341972,96.967278 
	C49.699791,98.908394 52.386845,100.576218 54.301830,101.997009 
	C55.061852,102.560890 56.564144,102.124313 58.673904,102.143379 
M86.498901,80.977303 
	C91.150070,80.975716 95.803268,80.888817 100.451775,80.999344 
	C104.224174,81.089035 107.416893,80.042137 107.546410,75.854439 
	C107.686035,71.339760 104.317123,70.164459 100.404327,70.165100 
	C85.786354,70.167496 71.168365,70.179077 56.550430,70.155884 
	C52.653515,70.149704 49.197765,71.235817 49.188595,75.676598 
	C49.179195,80.228378 52.717617,81.027634 56.595760,80.998306 
	C66.229774,80.925430 75.864723,80.976166 86.498901,80.977303 
M131.465195,155.805603 
	C119.003403,155.806305 106.541519,155.784134 94.079933,155.835556 
	C92.450623,155.842270 90.299393,155.662964 89.320129,156.571960 
	C87.936691,157.856155 86.580650,160.137482 86.712090,161.879440 
	C86.965836,165.242355 89.757233,166.188492 92.928223,166.179993 
	C108.048416,166.139404 123.168777,166.164536 138.289078,166.154343 
	C139.116852,166.153793 140.263885,166.370926 140.714142,165.928650 
	C142.241165,164.428741 144.740448,162.551987 144.585785,161.055008 
	C144.395447,159.212708 142.215225,156.802780 140.346390,156.102615 
	C138.005722,155.225677 135.107651,155.836502 131.465195,155.805603 
z"/>
<path fill="#30363A" opacity="1.000000" stroke="none" 
	d="
M97.762543,6.308908 
	C106.686012,7.248028 111.133820,17.820190 104.564857,24.495516 
	C101.378334,27.733644 97.417847,28.573214 93.100990,26.898827 
	C88.974960,25.298450 86.714836,22.149523 86.388634,17.820450 
	C86.044159,13.248975 88.039711,9.703744 92.141342,7.640604 
	C93.718452,6.847313 95.623253,6.705471 97.762543,6.308908 
z"/>
<path fill="#9EAEB9" opacity="1.000000" stroke="none" 
	d="
M110.000000,113.024246 
	C119.497826,113.025597 128.496124,113.081512 137.493256,113.003014 
	C141.432404,112.968651 144.879486,113.917076 144.802124,118.462318 
	C144.731750,122.597214 141.430573,123.824600 137.721542,123.825714 
	C110.561447,123.833870 83.401291,123.860954 56.241333,123.800301 
	C51.578590,123.789894 48.657925,121.337349 49.127384,117.947075 
	C49.712605,113.720810 52.827431,112.990700 56.512894,113.002411 
	C74.175110,113.058533 91.837608,113.025551 110.000000,113.024246 
z"/>
<path fill="#9DADB8" opacity="1.000000" stroke="none" 
	d="
M118.999939,145.004517 
	C98.338058,145.004456 78.176155,145.007965 58.014259,144.997070 
	C56.517883,144.996262 54.672482,145.421356 53.603973,144.716583 
	C51.835861,143.550385 49.337521,141.572357 49.403488,140.033081 
	C49.484840,138.134842 51.596409,135.963776 53.371120,134.629562 
	C54.478790,133.796844 56.584305,134.204697 58.242138,134.203506 
	C84.069351,134.184952 109.896591,134.189804 135.723816,134.192795 
	C136.889771,134.192917 138.061874,134.156357 139.220551,134.257721 
	C142.714432,134.563400 145.415863,136.611115 144.630875,139.934677 
	C144.154770,141.950333 141.086700,144.549957 138.972580,144.759094 
	C132.536575,145.395767 125.998352,144.998978 118.999939,145.004517 
z"/>
<path fill="#9AAAB5" opacity="1.000000" stroke="none" 
	d="
M58.201199,102.143311 
	C56.564144,102.124313 55.061852,102.560890 54.301830,101.997009 
	C52.386845,100.576218 49.699791,98.908394 49.341972,96.967278 
	C48.751659,93.764938 51.326401,91.974937 54.669636,91.885010 
	C55.667393,91.858177 56.666077,91.858383 57.664333,91.858337 
	C83.954071,91.857101 110.243805,91.855743 136.533539,91.862610 
	C137.863007,91.862953 139.543304,91.441910 140.446594,92.082451 
	C142.164215,93.300468 144.698547,95.248421 144.579300,96.703590 
	C144.426849,98.563828 142.246689,100.620499 140.436523,101.851707 
	C139.276871,102.640457 137.207809,102.135986 135.546387,102.136597 
	C109.922226,102.146080 84.298065,102.143303 58.201199,102.143311 
z"/>
<path fill="#9EAEB9" opacity="1.000000" stroke="none" 
	d="
M85.999100,80.977280 
	C75.864723,80.976166 66.229774,80.925430 56.595760,80.998306 
	C52.717617,81.027634 49.179195,80.228378 49.188595,75.676598 
	C49.197765,71.235817 52.653515,70.149704 56.550430,70.155884 
	C71.168365,70.179077 85.786354,70.167496 100.404327,70.165100 
	C104.317123,70.164459 107.686035,71.339760 107.546410,75.854439 
	C107.416893,80.042137 104.224174,81.089035 100.451775,80.999344 
	C95.803268,80.888817 91.150070,80.975716 85.999100,80.977280 
z"/>
<path fill="#9AABB6" opacity="1.000000" stroke="none" 
	d="
M131.957672,155.805389 
	C135.107651,155.836502 138.005722,155.225677 140.346390,156.102615 
	C142.215225,156.802780 144.395447,159.212708 144.585785,161.055008 
	C144.740448,162.551987 142.241165,164.428741 140.714142,165.928650 
	C140.263885,166.370926 139.116852,166.153793 138.289078,166.154343 
	C123.168777,166.164536 108.048416,166.139404 92.928223,166.179993 
	C89.757233,166.188492 86.965836,165.242355 86.712090,161.879440 
	C86.580650,160.137482 87.936691,157.856155 89.320129,156.571960 
	C90.299393,155.662964 92.450623,155.842270 94.079933,155.835556 
	C106.541519,155.784134 119.003403,155.806305 131.957672,155.805389 
z"/>
</svg>